# xmcd
#
# Track frame offsets: 
#        150
#        38347
#        97460
#        124210
#
# Disc length: 2535 seconds
#
# Revision: 0
# Processed by: cddbd v1.5.2PL0 Copyright (c) Steve Scherf et al.
# Submitted via: ExactAudioCopy v0.95b3
#
DISCID=3009e504
DTITLE=Miles Davis  - Fillmore East - 3-6-70 First Show - Disc 1
DYEAR=1900
DGENRE=
TTITLE0=Band Warming Up - Directions
TTITLE1=Miles Runs The Voodoo Down
TTITLE2=I Fall In Love Too Easily - Sancutary
TTITLE3=It"s About That Time - The Theme
EXTD=
EXTT0=
EXTT1=
EXTT2=
EXTT3=
PLAYORDER=
